<!DOCTYPE svg SYSTEM "svg-fix.dtd">
<svg xmlns="http://www.w3.org/2000/svg" width="40" height="40">
	<rect width="40" height="40" fill-opacity="0"></rect>
  <g fill="#000" transform="translate(5,5)">
		<path d="M14.14,11.28c0,0.35-0.02,0.71-0.07,1.05c0.38,0.07,0.76,0.11,1.16,0.11s0.79-0.04,1.16-0.11    c-0.05-0.34-0.07-0.7-0.07-1.05c0-3.23,1.94-6.02,4.72-7.25C20.17,1.68,17.9,0,15.24,0S10.3,1.68,9.42,4.03    C12.2,5.26,14.14,8.04,14.14,11.28z"/>
		<path d="M18.04,11.28c0,0.16,0.01,0.32,0.02,0.48c0.02,0.3,0.06,0.6,0.13,0.88c0.06,0.28,0.15,0.56,0.25,0.83    c0.11,0.3,0.24,0.58,0.39,0.85c1.42-1.33,3.33-2.15,5.42-2.15s4.01,0.82,5.42,2.15c0.51-0.9,0.79-1.94,0.79-3.04    c0-3.42-2.79-6.22-6.22-6.22c-0.4,0-0.79,0.04-1.16,0.11c-0.28,0.06-0.56,0.13-0.83,0.22c-0.28,0.09-0.56,0.21-0.83,0.35    C19.42,6.77,18.04,8.87,18.04,11.28z"/>
		<path d="M6.22,12.16c2.1,0,4.01,0.82,5.42,2.15c0.15-0.27,0.28-0.55,0.39-0.85c0.1-0.27,0.19-0.54,0.25-0.83    c0.06-0.28,0.11-0.58,0.13-0.88c0.02-0.15,0.02-0.32,0.02-0.48c0-2.41-1.38-4.51-3.39-5.54C8.77,5.6,8.5,5.49,8.21,5.39    c-0.27-0.1-0.55-0.17-0.83-0.22C7,5.1,6.61,5.06,6.22,5.06C2.79,5.06,0,7.85,0,11.28c0,1.1,0.28,2.14,0.79,3.04    C2.21,12.98,4.12,12.16,6.22,12.16z"/>
		<path d="M29.21,16.33c-0.18-0.23-0.36-0.44-0.57-0.65c-1.12-1.12-2.67-1.81-4.38-1.81c-1.71,0-3.25,0.69-4.38,1.81    c-0.2,0.2-0.39,0.42-0.56,0.64c-0.18,0.23-0.34,0.47-0.47,0.72c-0.2,0.34-0.36,0.71-0.48,1.09c2.83,1.21,4.81,4.02,4.81,7.28    c0,0.26-0.01,0.52-0.04,0.78c0.37,0.07,0.75,0.1,1.13,0.1c3.43,0,6.22-2.79,6.22-6.22c0-1.11-0.29-2.14-0.8-3.04    C29.54,16.8,29.38,16.56,29.21,16.33z"/>
		<path d="M12.12,18.14c-0.13-0.38-0.28-0.75-0.48-1.09c-0.14-0.26-0.3-0.5-0.47-0.72c-0.17-0.23-0.36-0.44-0.56-0.64    c-1.12-1.12-2.67-1.81-4.38-1.81s-3.26,0.69-4.38,1.81c-0.21,0.2-0.39,0.42-0.56,0.64c-0.18,0.23-0.34,0.47-0.47,0.72    C0.29,17.94,0,18.98,0,20.08c0,3.43,2.79,6.22,6.22,6.22c0.39,0,0.76-0.03,1.13-0.1c-0.03-0.26-0.04-0.52-0.04-0.78    C7.31,22.15,9.29,19.34,12.12,18.14z"/>
		<path d="M18.04,19.87c-0.27-0.14-0.55-0.26-0.84-0.35c-0.27-0.09-0.55-0.17-0.84-0.22c-0.37-0.07-0.75-0.1-1.13-0.1    s-0.76,0.03-1.13,0.1c-0.28,0.05-0.57,0.13-0.84,0.22c-0.29,0.1-0.57,0.22-0.84,0.35C10.4,20.9,9.02,23,9.02,25.42    c0,0.07,0,0.14,0.01,0.21c0.01,0.31,0.04,0.61,0.1,0.9c0.05,0.28,0.12,0.57,0.21,0.84c0.82,2.48,3.16,4.27,5.9,4.27    s5.08-1.79,5.9-4.27c0.09-0.27,0.17-0.55,0.21-0.84c0.06-0.3,0.09-0.6,0.1-0.91c0.01-0.07,0.01-0.14,0.01-0.21    C21.45,23,20.07,20.9,18.04,19.87z"/>
	</g>
</svg>